<svg width="36" height="36" viewBox="0 0 36 36" fill="none"
  xmlns="http://www.w3.org/2000/svg">
  <path d="M9 8C9 6.89543 9.89543 6 11 6H17.75C17.8881 6 18 6.11193 18 6.25V12.9444C18 14.049 18.8954 14.9444 20 14.9444H26.75C26.8881 14.9444 27 15.0564 27 15.1944V27C27 28.1046 26.1046 29 25 29H11C9.89543 29 9 28.1046 9 27V8Z" fill="#FFF7EB"/>
  <path d="M20 12V6.60355C20 6.38083 20.2693 6.26929 20.4268 6.42678L26.5732 12.5732C26.7307 12.7307 26.6192 13 26.3964 13H21C20.4477 13 20 12.5523 20 12Z" fill="#F89A05"/>
  <path d="M13.5 18.5L21.5 18.5" stroke="#F89A05" stroke-width="2" stroke-linecap="round"/>
  <path d="M13.5 23.5L19.5 23.5" stroke="#F89A05" stroke-width="2" stroke-linecap="round"/>
</svg>
