<svg width="36" height="36" viewBox="0 0 36 36" fill="none"
  xmlns="http://www.w3.org/2000/svg">
  <path d="M20.7311 19.3072C24.7459 19.3072 28.0004 17.8608 28.0004 16.0765C28.0004 14.2922 24.7459 12.8457 20.7311 12.8457C16.7165 12.8457 13.4619 14.2922 13.4619 16.0765C13.4619 17.8608 16.7165 19.3072 20.7311 19.3072Z" stroke="black" stroke-width="1.5" stroke-linecap="round" stroke-linejoin="round"/>
  <path d="M13.4619 16.0762V25.7685C13.4619 27.5454 16.6927 28.9992 20.7311 28.9992C24.7696 28.9992 28.0004 27.5454 28.0004 25.7685V16.0762" stroke="black" stroke-width="1.5" stroke-linecap="round" stroke-linejoin="round"/>
  <path d="M28.0004 20.9238C28.0004 22.7008 24.7696 24.1546 20.7311 24.1546C16.6927 24.1546 13.4619 22.7008 13.4619 20.9238" stroke="black" stroke-width="1.5" stroke-linecap="round" stroke-linejoin="round"/>
  <path d="M20.5692 9.62957C18.6816 8.46467 16.4845 7.90129 14.2692 8.01418C10.2469 8.01418 7 9.46803 7 11.245C7 12.198 7.93692 13.0542 9.42308 13.668" stroke="black" stroke-width="1.5" stroke-linecap="round" stroke-linejoin="round"/>
  <path d="M9.42308 23.3595C7.93692 22.7457 7 21.8895 7 20.9364V11.2441" stroke="black" stroke-width="1.5" stroke-linecap="round" stroke-linejoin="round"/>
  <path d="M9.42308 18.5149C7.93692 17.901 7 17.0449 7 16.0918" stroke="black" stroke-width="1.5" stroke-linecap="round" stroke-linejoin="round"/>
</svg>
