<svg width="36" height="36" viewBox="0 0 36 36" fill="none"
  xmlns="http://www.w3.org/2000/svg">
  <path d="M9.53846 10.3086C9.13043 10.3086 8.73912 10.4707 8.4506 10.7592C8.16209 11.0477 8 11.439 8 11.8471V26.4624C8 26.8704 8.16209 27.2618 8.4506 27.5503C8.73912 27.8387 9.13043 28.0009 9.53846 28.0009H26.4615C26.8695 28.0009 27.2609 27.8387 27.5494 27.5503C27.8378 27.2618 28 26.8704 28 26.4624V11.8471C28 11.439 27.8378 11.0477 27.5494 10.7592C27.2609 10.4707 26.8695 10.3086 26.4615 10.3086H23.3846" stroke="black" stroke-width="1.5" stroke-linecap="round" stroke-linejoin="round"/>
  <path d="M8 15.6914H28" stroke="black" stroke-width="1.5" stroke-linecap="round" stroke-linejoin="round"/>
  <path d="M12.6152 8V12.6154" stroke="black" stroke-width="1.5" stroke-linecap="round" stroke-linejoin="round"/>
  <path d="M23.3848 8V12.6154" stroke="black" stroke-width="1.5" stroke-linecap="round" stroke-linejoin="round"/>
  <path d="M12.6152 10.3086H20.3075" stroke="black" stroke-width="1.5" stroke-linecap="round" stroke-linejoin="round"/>
</svg>
