<svg width="42" height="42" viewBox="0 0 42 42" fill="none"
  xmlns="http://www.w3.org/2000/svg">
  <rect x="1.5" y="1.5" width="39" height="39" rx="19.5" fill="#EFEFEF"/>
  <rect x="1.5" y="1.5" width="39" height="39" rx="19.5" stroke="white" stroke-width="3"/>
  <path fill-rule="evenodd" clip-rule="evenodd" d="M25.783 13.1633C25.4706 12.8509 24.964 12.8509 24.6516 13.1633L22.3866 15.4283L26.7047 19.7464L25.7612 20.6899L21.4431 16.3718L15.3494 22.4656C15.0789 22.7361 14.9143 23.0945 14.8853 23.4759L14.6133 27.0608C14.5763 27.5494 14.9831 27.9561 15.4716 27.9191L19.0565 27.6471C19.4379 27.6181 19.7964 27.4535 20.0668 27.183L29.3691 17.8808C29.6815 17.5684 29.6815 17.0619 29.3691 16.7494L25.783 13.1633Z" fill="#C4C4C4"/>
  <rect x="13.7998" y="29" width="15.2" height="1.6" fill="#C4C4C4"/>
</svg>
