<svg width="36" height="36" viewBox="0 0 36 36" fill="none"
  xmlns="http://www.w3.org/2000/svg">
  <path d="M27 17.9169C27.0013 17.7247 26.9626 17.5344 26.8863 17.358C26.81 17.1816 26.6978 17.023 26.5569 16.8923L18 9L9.44311 16.8923C9.30219 17.023 9.19002 17.1816 9.11374 17.358C9.03745 17.5344 8.99873 17.7247 9.00003 17.9169V25.6154C9.00003 25.9826 9.14591 26.3348 9.40558 26.5944C9.66524 26.8541 10.0174 27 10.3846 27H25.6154C25.9826 27 26.3348 26.8541 26.5944 26.5944C26.8542 26.3348 27 25.9826 27 25.6154V17.9169Z" stroke="#1F1F1F" stroke-width="2" stroke-linecap="round" stroke-linejoin="round"/>
  <path d="M18 26.9994V21.4609" stroke="#1F1F1F" stroke-width="2" stroke-linecap="round" stroke-linejoin="round"/>
</svg>
