<svg width="72" height="72" viewBox="0 0 72 72" fill="none"
  xmlns="http://www.w3.org/2000/svg">
  <circle cx="36" cy="36" r="35.25" stroke="#F2F2F2" stroke-width="1.5"/>
  <g clip-path="url(#clip0_1240_71033)">
    <path fill-rule="evenodd" clip-rule="evenodd" d="M49.5006 36.3092C49.5017 35.3829 49.4179 34.4584 49.2501 33.5469H36.2725V38.7688H43.6866C43.5327 39.594 43.2098 40.38 42.7374 41.0794C42.265 41.7789 41.6528 42.3773 40.9379 42.8385V46.2266H45.3893C47.9939 43.8763 49.4967 40.4145 49.4967 36.3067L49.5006 36.3092Z" fill="#3E82F1"/>
    <path fill-rule="evenodd" clip-rule="evenodd" d="M36.2759 49.4973C39.9953 49.4973 43.1139 48.2891 45.3927 46.2275L40.9414 42.8395C39.7072 43.6496 38.1291 44.1291 36.2759 44.1291C32.6876 44.1291 29.6508 41.7534 28.5685 38.5625H23.9653V42.0612C25.112 44.2973 26.8706 46.177 29.0445 47.4901C31.2185 48.8033 33.7222 49.4982 36.2759 49.4973Z" fill="#32A753"/>
    <path fill-rule="evenodd" clip-rule="evenodd" d="M28.5683 38.5653C27.9921 36.9022 27.9921 35.0993 28.5683 33.4362V29.9375H23.9651C23.0017 31.8192 22.5 33.8954 22.5 36.0007C22.5 38.106 23.0017 40.1822 23.9651 42.064L28.5683 38.5653Z" fill="#F9BB00"/>
    <path fill-rule="evenodd" clip-rule="evenodd" d="M36.2758 27.8682C38.299 27.8682 40.1146 28.5499 41.5421 29.8878L45.4925 26.0152C43.1072 23.8366 39.9887 22.5 36.2784 22.5C33.7246 22.4991 31.2209 23.194 29.047 24.5072C26.873 25.8203 25.1145 27.7 23.9678 29.9361L28.5709 33.4348C29.6533 30.2439 32.6901 27.8682 36.2784 27.8682H36.2758Z" fill="#E74133"/>
  </g>
  <defs>
    <clipPath id="clip0_1240_71033">
      <rect width="27" height="27" fill="white" transform="translate(22.5 22.5)"/>
    </clipPath>
  </defs>
</svg>
