<svg width="36" height="36" viewBox="0 0 36 36" fill="none"
  xmlns="http://www.w3.org/2000/svg">
  <path fill-rule="evenodd" clip-rule="evenodd" d="M22.5 25.6154V22.8462V19H25.9426L24.8217 20.0346C24.4159 20.4092 24.3906 21.0419 24.7652 21.4477C25.1398 21.8535 25.7725 21.8788 26.1783 21.5042L29.1783 18.735C29.2377 18.6802 29.2896 18.6189 29.3335 18.5527C29.4387 18.3944 29.5 18.2045 29.5 18.0002V18C29.5 17.7033 29.3708 17.4368 29.1655 17.2536L26.1783 14.4962C25.7725 14.1216 25.1398 14.1469 24.7652 14.5527C24.3906 14.9585 24.4159 15.5912 24.8217 15.9658L25.9421 17H22.5V13.1538V10.3846C22.5 10.0174 22.342 9.66521 22.0607 9.40554C21.7794 9.14588 21.3978 9 21 9H10.5C10.1022 9 9.72065 9.14588 9.43934 9.40554C9.15804 9.66521 9 10.0174 9 10.3846V25.6154C9 25.9826 9.15804 26.3348 9.43934 26.5944C9.72065 26.8541 10.1022 27 10.5 27H21C21.3978 27 21.7794 26.8541 22.0607 26.5944C22.342 26.3348 22.5 25.9826 22.5 25.6154ZM22.5 17H18C17.4477 17 17 17.4477 17 18C17 18.5523 17.4477 19 18 19H22.5V17Z" fill="white"/>
</svg>
