<svg width="30" height="28" viewBox="0 0 30 28" fill="none" xmlns="http://www.w3.org/2000/svg">
<g clip-path="url(#clip0_2067_15039)">
<path d="M10.9629 13.0875H12.6908L11.8268 10.6934L10.9629 13.0875Z" fill="#331D1E"/>
<path d="M15 0.5C6.71538 0.5 0 5.66396 0 12.0349C0 16.1536 2.80817 19.7716 7.03125 21.8085C6.80192 22.5808 5.55433 26.7798 5.50529 27.1103C5.50529 27.1103 5.475 27.3579 5.63942 27.4522C5.69444 27.4792 5.75453 27.4951 5.81604 27.4987C5.87754 27.5023 5.93916 27.4937 5.99712 27.4733C6.47019 27.4086 11.4779 23.9833 12.3433 23.3939C13.2235 23.5131 14.1113 23.5718 15 23.5697C23.2846 23.5697 30 18.4058 30 12.0349C30 5.66396 23.2846 0.5 15 0.5ZM7.57644 10.2441C7.55769 11.8759 7.59087 13.5921 7.56346 15.1985C7.55481 15.7119 7.25192 15.8653 6.84231 16.0116C6.79603 16.0275 6.74618 16.0309 6.69808 16.0214C6.22933 15.9314 5.85577 15.7682 5.84423 15.1999C5.81106 13.5949 5.85433 11.8759 5.83125 10.2441C5.43462 10.2287 4.86923 10.2596 4.50144 10.2441C3.99087 10.2118 3.63606 9.89528 3.65769 9.42404C3.67933 8.9528 3.9375 8.61379 4.5101 8.60534C5.86298 8.58565 7.53894 8.58565 8.89183 8.60534C9.46875 8.61379 9.72548 8.9542 9.74279 9.42404C9.7601 9.89387 9.41106 10.2118 8.90192 10.2441C8.53846 10.2596 7.97452 10.2287 7.57644 10.2441ZM14.8457 15.9342C14.6727 16.011 14.4848 16.0508 14.2947 16.051C13.9341 16.051 13.6587 15.9103 13.5736 15.6782L13.1409 14.5838H10.5072L10.0745 15.6782C9.99086 15.9075 9.71538 16.051 9.35336 16.051C9.16372 16.051 8.9763 16.0111 8.80385 15.9342C8.56442 15.8273 8.3351 15.5319 8.5976 14.7357L10.6731 9.42123C10.7601 9.18713 10.916 8.98327 11.1212 8.83514C11.3265 8.68702 11.5719 8.60122 11.8269 8.58846C12.0817 8.60258 12.3267 8.68908 12.5317 8.8373C12.7367 8.98551 12.8928 9.18898 12.9808 9.42263L15.049 14.7343C15.313 15.5319 15.0837 15.8329 14.8457 15.9342ZM19.2188 15.9342H16.4423C16.2273 15.9384 16.0193 15.8593 15.8639 15.7143C15.7085 15.5693 15.6183 15.3702 15.613 15.1605V9.43248C15.6222 9.20999 15.7193 8.99961 15.884 8.84537C16.0486 8.69113 16.2681 8.605 16.4964 8.605C16.7247 8.605 16.9442 8.69113 17.1088 8.84537C17.2735 8.99961 17.3706 9.20999 17.3798 9.43248V14.3911H19.2188C19.3269 14.3847 19.4353 14.4 19.5373 14.436C19.6392 14.472 19.7325 14.5279 19.8114 14.6004C19.8903 14.6729 19.9532 14.7603 19.9962 14.8574C20.0391 14.9544 20.0613 15.059 20.0613 15.1647C20.0613 15.2705 20.0391 15.3751 19.9962 15.4721C19.9532 15.5692 19.8903 15.6566 19.8114 15.7291C19.7325 15.8015 19.6392 15.8575 19.5373 15.8935C19.4353 15.9295 19.3269 15.9448 19.2188 15.9384V15.9342ZM25.9976 15.2984C25.9751 15.4649 25.9022 15.621 25.7881 15.7469C25.6741 15.8727 25.5242 15.9625 25.3576 16.0048C25.1909 16.0471 25.0152 16.04 24.8527 15.9843C24.6903 15.9286 24.5485 15.8269 24.4457 15.6922L22.4163 13.0716L22.1163 13.3642V15.2055C22.1163 15.4294 22.0252 15.6441 21.8629 15.8023C21.7006 15.9606 21.4805 16.0495 21.251 16.0495C21.0214 16.0495 20.8013 15.9606 20.639 15.8023C20.4768 15.6441 20.3856 15.4294 20.3856 15.2055V9.43811C20.3856 9.21426 20.4768 8.99958 20.639 8.8413C20.8013 8.68301 21.0214 8.59409 21.251 8.59409C21.4805 8.59409 21.7006 8.68301 21.8629 8.8413C22.0252 8.99958 22.1163 9.21426 22.1163 9.43811V11.2471L24.5308 8.89231C24.594 8.83136 24.669 8.78329 24.7515 8.75093C24.8339 8.71857 24.9222 8.70255 25.0111 8.70381C25.2272 8.70935 25.4335 8.79253 25.5906 8.9374C25.7477 9.08228 25.8443 9.27862 25.862 9.48875C25.8698 9.58251 25.857 9.67682 25.8244 9.76536C25.7918 9.8539 25.7402 9.93464 25.6731 10.0022L23.6971 11.9251L25.8274 14.678C25.9653 14.8566 26.025 15.0812 25.9933 15.3026L25.9976 15.2984Z" fill="#331D1E"/>
</g>
<defs>
<clipPath id="clip0_2067_15039">
<rect width="30" height="27" fill="white" transform="translate(0 0.5)"/>
</clipPath>
</defs>
</svg>
