<svg width="36" height="36" viewBox="0 0 36 36" fill="none"
  xmlns="http://www.w3.org/2000/svg">
  <path fill-rule="evenodd" clip-rule="evenodd" d="M8.77325 10.8379C6.56077 13.1181 6.37719 16.7638 8.45658 19.1733C9.32359 20.178 10.2326 21.1959 11.0398 22.0278C12.9587 24.0054 15.8969 26.5758 17.259 27.7483C17.4735 27.933 17.7393 28.0149 17.9995 27.9977C18.2599 28.0151 18.5259 27.9332 18.7406 27.7484C20.1027 26.576 23.0409 24.006 24.9596 22.0286C25.767 21.1964 26.6763 20.1782 27.5435 19.1732C29.6228 16.7636 29.4392 13.118 27.2268 10.8378C24.8491 8.38736 20.9942 8.3874 18.6165 10.8379L17.9999 11.4733L17.3833 10.8378C15.0057 8.3874 11.1509 8.38744 8.77325 10.8379Z" fill="#F89A05"/>
</svg>
