<svg width="24" height="24" viewBox="0 0 24 24" fill="none"
  xmlns="http://www.w3.org/2000/svg">
  <path d="M4.05737 21.7471C3.24257 21.4092 2.59082 20.7574 2.25294 19.9426L2.7148 19.7511C2.57655 19.4177 2.5 19.0518 2.5 18.6667V17.5556H2V15.3333H2.5V13.1111H2V10.8889H2.5V8.66667H2V6.44444H2.5V5.33333C2.5 4.94824 2.57655 4.58228 2.7148 4.2489L2.25293 4.05737C2.59082 3.24257 3.24257 2.59082 4.05737 2.25294L4.2489 2.7148C4.58228 2.57655 4.94824 2.5 5.33333 2.5H6.44444V2H8.66667V2.5H10.8889V2H13.1111V2.5H15.3333V2H17.5556V2.5H18.6667C19.0518 2.5 19.4177 2.57655 19.7511 2.7148L19.9426 2.25293C20.7574 2.59082 21.4092 3.24257 21.7471 4.05737L21.2852 4.2489C21.4234 4.58228 21.5 4.94824 21.5 5.33333V6.44444H22V8.66667H21.5V10.8889H22V13.1111H21.5V15.3333H22V17.5556H21.5V18.6667C21.5 19.0518 21.4234 19.4177 21.2852 19.7511L21.7471 19.9426C21.4092 20.7574 20.7574 21.4092 19.9426 21.7471L19.7511 21.2852C19.4177 21.4234 19.0518 21.5 18.6667 21.5H17.5556V22H15.3333V21.5H13.1111V22H10.8889V21.5H8.66667V22H6.44444V21.5H5.33333C4.94824 21.5 4.58228 21.4234 4.2489 21.2852L4.05737 21.7471Z" stroke="#F89A05" stroke-dasharray="2 2"/>
</svg>
