<svg width="36" height="36" viewBox="0 0 36 36" fill="none"
  xmlns="http://www.w3.org/2000/svg">
  <path d="M15.2969 10.625L15.9419 8.96C16.0507 8.6781 16.2421 8.43562 16.491 8.26432C16.7399 8.09302 17.0347 8.00089 17.3369 8H18.5669C18.8691 8.00089 19.1639 8.09302 19.4128 8.26432C19.6618 8.43562 19.8531 8.6781 19.9619 8.96L20.6069 10.625L22.7968 11.885L24.5668 11.615C24.8616 11.575 25.1616 11.6235 25.4287 11.7544C25.6957 11.8853 25.9179 12.0926 26.0668 12.35L26.6668 13.4C26.8206 13.6615 26.8915 13.9635 26.8701 14.2661C26.8486 14.5687 26.736 14.8577 26.5468 15.095L25.4518 16.49V19.01L26.5768 20.405C26.766 20.6423 26.8786 20.9313 26.9001 21.2339C26.9215 21.5365 26.8506 21.8385 26.6968 22.1L26.0968 23.15C25.9479 23.4074 25.7257 23.6147 25.4587 23.7456C25.1916 23.8764 24.8916 23.9251 24.5968 23.885L22.8268 23.615L20.6369 24.875L19.9919 26.54C19.8831 26.8218 19.6918 27.0644 19.4428 27.2357C19.1939 27.407 18.8991 27.4991 18.5969 27.5H17.3369C17.0347 27.4991 16.7399 27.407 16.491 27.2357C16.2421 27.0644 16.0507 26.8218 15.9419 26.54L15.2969 24.875L13.1069 23.615L11.3369 23.885C11.0422 23.9251 10.7422 23.8764 10.4751 23.7456C10.2081 23.6147 9.9859 23.4074 9.8369 23.15L9.2369 22.1C9.08315 21.8385 9.01232 21.5365 9.03374 21.2339C9.05516 20.9313 9.16784 20.6423 9.3569 20.405L10.4519 19.01V16.49L9.3269 15.095C9.13784 14.8577 9.02516 14.5687 9.00374 14.2661C8.98232 13.9635 9.05315 13.6615 9.2069 13.4L9.8069 12.35C9.9559 12.0926 10.178 11.8853 10.4451 11.7544C10.7122 11.6235 11.0122 11.575 11.3069 11.615L13.0769 11.885L15.2969 10.625ZM14.9519 17.75C14.9519 18.3433 15.1279 18.9234 15.4575 19.4167C15.7871 19.9101 16.2557 20.2946 16.8038 20.5216C17.352 20.7487 17.9552 20.8081 18.5372 20.6924C19.1191 20.5766 19.6537 20.2909 20.0732 19.8713C20.4928 19.4518 20.7785 18.9172 20.8943 18.3353C21.01 17.7533 20.9506 17.1501 20.7235 16.6019C20.4965 16.0538 20.112 15.5852 19.6186 15.2556C19.1253 14.9259 18.5452 14.75 17.9519 14.75C17.1563 14.75 16.3932 15.0661 15.8306 15.6287C15.268 16.1913 14.9519 16.9544 14.9519 17.75Z" stroke="#1F1F1F" stroke-width="2" stroke-linecap="round" stroke-linejoin="round"/>
</svg>
