<svg width="36" height="36" viewBox="0 0 36 36" fill="none"
  xmlns="http://www.w3.org/2000/svg">
  <path d="M26.3713 10H9.62853C8.05345 10 7.09648 11.7362 7.93753 13.0679L8.73091 14.3242C8.90738 14.6036 9.01185 14.9224 9.03499 15.2521L9.86944 27.14C9.94298 28.1877 10.8143 29 11.8645 29H24.1354C25.1857 29 26.057 28.1877 26.1305 27.14L26.9647 15.2522C26.9879 14.9225 27.0923 14.6036 27.2689 14.3242L28.0622 13.068C28.9034 11.7363 27.9464 10 26.3713 10Z" fill="#ABABAB"/>
  <path d="M16 16V24" stroke="#DEDEDE" stroke-width="1.5" stroke-linecap="round"/>
  <path d="M20 16V24" stroke="#DEDEDE" stroke-width="1.5" stroke-linecap="round"/>
  <path d="M12 11L13.2567 7.64888C13.403 7.25857 13.7762 7 14.193 7H21.807C22.2238 7 22.597 7.25857 22.7433 7.64888L24 11" stroke="#ABABAB" stroke-width="1.5" stroke-linecap="round"/>
</svg>
