<svg width="36" height="36" viewBox="0 0 36 36" fill="none"
  xmlns="http://www.w3.org/2000/svg">
  <circle cx="21" cy="14" r="4" fill="#3E415B"/>
  <path d="M13 25C13 21.6863 15.6863 19 19 19H23C26.3137 19 29 21.6863 29 25C29 25.5523 28.5523 26 28 26H14C13.4477 26 13 25.5523 13 25Z" fill="#3E415B"/>
  <circle cx="15" cy="14" r="4.5" fill="white" stroke="#2A2C3D"/>
  <path d="M13 18.5C9.41015 18.5 6.5 21.4101 6.5 25C6.5 25.8284 7.17157 26.5 8 26.5H22C22.8284 26.5 23.5 25.8284 23.5 25C23.5 21.4101 20.5899 18.5 17 18.5H13Z" fill="white" stroke="#2A2C3D"/>
</svg>
