<svg width="24" height="24" viewBox="0 0 24 24" fill="none"
  xmlns="http://www.w3.org/2000/svg">
  <path d="M15.7726 12.971L14.6496 11.8479C14.8201 10.9582 14.5861 10.1992 13.9477 9.57101C13.3092 8.94281 12.5432 8.70179 11.6496 8.84794L10.5265 7.72489C10.7586 7.61719 10.9974 7.53962 11.2429 7.49219C11.4884 7.44475 11.7406 7.42104 11.9996 7.42104C13.1342 7.42104 14.0973 7.81687 14.889 8.60854C15.6807 9.4002 16.0765 10.3633 16.0765 11.4979C16.0765 11.7569 16.0544 12.0091 16.0101 12.2547C15.9659 12.5002 15.8867 12.7389 15.7726 12.971ZM18.9534 16.0825L17.8496 15.0479C18.4829 14.5646 19.0496 14.0271 19.5496 13.4354C20.0496 12.8438 20.4663 12.1979 20.7996 11.4979C19.9663 9.8146 18.7621 8.4771 17.1871 7.48544C15.6121 6.49377 13.8829 5.99794 11.9996 5.99794C11.5163 5.99794 11.0454 6.03127 10.5871 6.09794C10.1288 6.1646 9.66625 6.2646 9.19959 6.39794L8.03424 5.23259C8.67012 4.9813 9.31851 4.79605 9.97941 4.67681C10.6403 4.55758 11.3137 4.49796 11.9996 4.49796C14.1483 4.49796 16.122 5.05629 17.9207 6.17296C19.7194 7.28963 21.1028 8.80052 22.0707 10.7056C22.1374 10.8326 22.1858 10.9604 22.2159 11.0893C22.246 11.2181 22.2611 11.3544 22.2611 11.4979C22.2611 11.6415 22.2486 11.7777 22.2236 11.9066C22.1986 12.0354 22.1528 12.1633 22.0861 12.2902C21.7322 13.0428 21.288 13.7377 20.7534 14.3748C20.2188 15.012 19.6188 15.5813 18.9534 16.0825ZM11.9996 18.4979C9.89447 18.4979 7.96499 17.9354 6.21116 16.8104C4.45731 15.6854 3.06308 14.2037 2.02846 12.3652C1.94513 12.2383 1.88424 12.1005 1.84579 11.9518C1.80732 11.8031 1.78809 11.6518 1.78809 11.4979C1.78809 11.3441 1.80475 11.1954 1.83809 11.0518C1.87142 10.9082 1.92975 10.7678 2.01309 10.6306C2.38489 9.95115 2.80604 9.30404 3.27656 8.68929C3.74708 8.07454 4.2881 7.52358 4.89964 7.03641L2.64194 4.76331C2.50347 4.6146 2.4352 4.43799 2.43714 4.23351C2.43905 4.02903 2.51244 3.85435 2.65731 3.70949C2.80218 3.56462 2.97782 3.49219 3.18424 3.49219C3.39064 3.49219 3.56627 3.56462 3.71114 3.70949L20.288 20.2864C20.4265 20.4248 20.4999 20.5963 20.5082 20.8008C20.5165 21.0053 20.4432 21.1851 20.288 21.3402C20.1432 21.4851 19.9675 21.5575 19.7611 21.5575C19.5547 21.5575 19.3791 21.4851 19.2342 21.3402L15.715 17.8517C15.1252 18.08 14.5191 18.2447 13.8967 18.346C13.2743 18.4473 12.6419 18.4979 11.9996 18.4979ZM5.95346 8.09021C5.36756 8.54278 4.84095 9.05465 4.37364 9.62581C3.90632 10.197 3.51497 10.821 3.19959 11.4979C4.03292 13.1813 5.23709 14.5188 6.81209 15.5104C8.38709 16.5021 10.1163 16.9979 11.9996 16.9979C12.4291 16.9979 12.8519 16.9691 13.2679 16.9114C13.6839 16.8537 14.0971 16.7646 14.5073 16.6441L13.2419 15.3479C13.0393 15.4364 12.8371 15.4963 12.6352 15.5277C12.4332 15.5591 12.2214 15.5748 11.9996 15.5748C10.865 15.5748 9.90185 15.179 9.11019 14.3873C8.31852 13.5957 7.92269 12.6325 7.92269 11.4979C7.92269 11.2761 7.93999 11.0643 7.97461 10.8624C8.00923 10.6604 8.06756 10.4582 8.14961 10.2556L5.95346 8.09021Z" fill="#C4C4C4"/>
</svg>
