<svg width="216" height="40" viewBox="0 0 216 40" fill="none"
  xmlns="http://www.w3.org/2000/svg">
  <path d="M13.8965 38C6.88382 38 2 32.5874 2 25.1189C2 17.6503 6.88382 12.2378 13.8965 12.2378C17.1106 12.2378 19.4482 13.3706 20.9091 15.3427C20.9091 13.9523 22.0305 12.8252 23.4137 12.8252H24.6242C26.6759 12.8252 28.3392 14.4971 28.3392 16.5594V33.6783C28.3392 35.7407 26.6759 37.4126 24.6242 37.4126H23.4137C22.0305 37.4126 20.9091 36.2855 20.9091 34.8951C19.4482 36.8671 17.1106 38 13.8965 38ZM15.0653 31.6224C18.6968 31.6224 21.0344 28.8951 21.0344 25.1189C21.0344 21.3427 18.6968 18.6154 15.0653 18.6154C11.5172 18.6154 9.26312 21.3427 9.26312 25.1189C9.26312 28.8951 11.5172 31.6224 15.0653 31.6224Z" fill="#F89A05"/>
  <path d="M37.6624 2.16783C39.7141 2.16783 41.3774 3.83972 41.3774 5.9021V33.6783C41.3774 35.7407 39.7141 37.4126 37.6624 37.4126C35.6106 37.4126 33.9473 35.7407 33.9473 33.6783V5.9021C33.9473 3.83973 35.6106 2.16783 37.6624 2.16783Z" fill="#F89A05"/>
  <path d="M61.3937 38C58.1796 38 55.842 36.8671 54.3811 34.8951C54.3811 36.2855 53.2597 37.4126 51.8765 37.4126H50.666C48.6142 37.4126 46.951 35.7407 46.951 33.6783V5.9021C46.951 3.83973 48.6142 2.16783 50.666 2.16783C52.7178 2.16783 54.3811 3.83972 54.3811 5.9021V15.3427C55.842 13.3706 58.1796 12.2378 61.3937 12.2378C68.4064 12.2378 73.2902 17.6503 73.2902 25.1189C73.2902 32.5874 68.4064 38 61.3937 38ZM60.2249 31.6224C63.773 31.6224 66.0271 28.8951 66.0271 25.1189C66.0271 21.3427 63.773 18.6154 60.2249 18.6154C56.5934 18.6154 54.2558 21.3427 54.2558 25.1189C54.2558 28.8951 56.5934 31.6224 60.2249 31.6224Z" fill="#F89A05"/>
  <path d="M88.2903 38C81.2776 38 76.3938 32.5874 76.3938 25.1189C76.3938 17.6503 81.2776 12.2378 88.2903 12.2378C91.5044 12.2378 93.842 13.3706 95.3029 15.3427C95.3029 13.9523 96.4242 12.8252 97.8075 12.8252H99.018C101.07 12.8252 102.733 14.4971 102.733 16.5594V33.6783C102.733 35.7407 101.07 37.4126 99.018 37.4126H97.8074C96.4242 37.4126 95.3029 36.2855 95.3029 34.8951C93.842 36.8671 91.5044 38 88.2903 38ZM89.459 31.6224C93.0906 31.6224 95.4282 28.8951 95.4282 25.1189C95.4282 21.3427 93.0906 18.6154 89.459 18.6154C85.911 18.6154 83.6569 21.3427 83.6569 25.1189C83.6569 28.8951 85.911 31.6224 89.459 31.6224Z" fill="#F89A05"/>
  <path d="M119.382 12.8252C121.145 12.8252 122.575 14.2622 122.575 16.035C122.575 17.8077 121.145 19.2448 119.382 19.2448H117.9V33.6783C117.9 35.7407 116.237 37.4126 114.185 37.4126C112.133 37.4126 110.47 35.7407 110.47 33.6783V19.2448H109.573C107.809 19.2448 106.379 17.8077 106.379 16.035C106.379 14.2622 107.809 12.8252 109.573 12.8252H110.47V10.3916C110.47 5.56643 113.475 2 118.777 2C119.046 2 119.313 2.00388 119.576 2.01163C121.078 2.05596 122.158 3.34973 122.158 4.86028V6.56998C122.158 7.58663 121.249 8.41958 120.238 8.41958C118.777 8.41958 117.9 9.34266 117.9 10.8112V12.8252H119.382Z" fill="#F89A05"/>
  <path d="M137.314 12.2378C144.869 12.2378 150.295 17.6503 150.295 25.1189C150.295 32.5874 144.869 38 137.314 38C129.758 38 124.332 32.5874 124.332 25.1189C124.332 17.6503 129.758 12.2378 137.314 12.2378ZM137.314 18.6154C133.807 18.6154 131.512 21.3427 131.512 25.1189C131.512 28.8951 133.807 31.6224 137.314 31.6224C140.82 31.6224 143.116 28.8951 143.116 25.1189C143.116 21.3427 140.82 18.6154 137.314 18.6154Z" fill="#F89A05"/>
  <path d="M158.364 37.4126C156.312 37.4126 154.649 35.7407 154.649 33.6783V16.5594C154.649 14.4971 156.312 12.8252 158.364 12.8252H159.574C160.957 12.8252 162.079 13.9523 162.079 15.3427C163.54 13.3706 165.794 12.2378 168.924 12.2378C170.853 12.2378 172.09 13.9793 172.02 15.9161L171.978 17.0706C171.904 19.0968 170.437 18.6987 168.424 18.8252C164.458 18.8252 162.079 21.0909 162.079 24.8252V33.6783C162.079 35.7407 160.415 37.4126 158.364 37.4126Z" fill="#F89A05"/>
  <path d="M179.479 37.4126C177.428 37.4126 175.764 35.7407 175.764 33.6783V16.5594C175.764 14.4971 177.428 12.8252 179.479 12.8252H181.399C182.39 12.8252 183.194 13.6333 183.194 14.6302C183.194 14.804 183.419 14.8803 183.53 14.7472C184.936 13.0632 186.696 12.2378 189.205 12.2378C192.294 12.2378 194.84 13.4965 196.468 15.7622C198.305 13.4126 200.893 12.2378 204.608 12.2378C210.243 12.2378 214 16.3496 214 23.1888V33.6783C214 35.7407 212.337 37.4126 210.285 37.4126C208.233 37.4126 206.57 35.7407 206.57 33.6783V24.4476C206.57 20.7133 205.151 18.6573 202.437 18.6573C200.016 18.6573 198.722 20.5874 198.597 24.0699V33.6783C198.597 35.7407 196.934 37.4126 194.882 37.4126C192.83 37.4126 191.167 35.7407 191.167 33.6783V24.4476C191.167 20.7133 189.748 18.6573 187.035 18.6573C184.614 18.6573 183.32 20.5874 183.194 24.0699V33.6783C183.194 35.7407 181.531 37.4126 179.479 37.4126Z" fill="#F89A05"/>
</svg>
