<svg width="72" height="72" viewBox="0 0 72 72" fill="none" xmlns="http://www.w3.org/2000/svg">
<circle cx="36" cy="36" r="35.25" stroke="#F2F2F2" stroke-width="1.5"/>
<g clip-path="url(#clip0_1240_71040)">
<path d="M31.9629 35.0895H33.6908L32.8268 32.6953L31.9629 35.0895Z" fill="#331D1E"/>
<path d="M36 22.5C27.7154 22.5 21 27.664 21 34.0349C21 38.1536 23.8082 41.7716 28.0312 43.8085C27.8019 44.5808 26.5543 48.7798 26.5053 49.1103C26.5053 49.1103 26.475 49.3579 26.6394 49.4522C26.6944 49.4792 26.7545 49.4951 26.816 49.4987C26.8775 49.5023 26.9392 49.4937 26.9971 49.4733C27.4702 49.4086 32.4779 45.9833 33.3433 45.3939C34.2235 45.5131 35.1113 45.5718 36 45.5697C44.2846 45.5697 51 40.4058 51 34.0349C51 27.664 44.2846 22.5 36 22.5ZM28.5764 32.2441C28.5577 33.8759 28.5909 35.5921 28.5635 37.1985C28.5548 37.7119 28.2519 37.8653 27.8423 38.0116C27.796 38.0275 27.7462 38.0309 27.6981 38.0214C27.2293 37.9314 26.8558 37.7682 26.8442 37.1999C26.8111 35.5949 26.8543 33.8759 26.8313 32.2441C26.4346 32.2287 25.8692 32.2596 25.5014 32.2441C24.9909 32.2118 24.6361 31.8953 24.6577 31.424C24.6793 30.9528 24.9375 30.6138 25.5101 30.6053C26.863 30.5857 28.5389 30.5857 29.8918 30.6053C30.4688 30.6138 30.7255 30.9542 30.7428 31.424C30.7601 31.8939 30.4111 32.2118 29.9019 32.2441C29.5385 32.2596 28.9745 32.2287 28.5764 32.2441ZM35.8457 37.9342C35.6727 38.011 35.4848 38.0508 35.2947 38.051C34.9341 38.051 34.6587 37.9103 34.5736 37.6782L34.1409 36.5838H31.5072L31.0745 37.6782C30.9909 37.9075 30.7154 38.051 30.3534 38.051C30.1637 38.051 29.9763 38.0111 29.8038 37.9342C29.5644 37.8273 29.3351 37.5319 29.5976 36.7357L31.6731 31.4212C31.7601 31.1871 31.916 30.9833 32.1212 30.8351C32.3265 30.687 32.5719 30.6012 32.8269 30.5885C33.0817 30.6026 33.3267 30.6891 33.5317 30.8373C33.7367 30.9855 33.8928 31.189 33.9808 31.4226L36.049 36.7343C36.313 37.5319 36.0837 37.8329 35.8457 37.9342ZM40.2188 37.9342H37.4423C37.2273 37.9384 37.0193 37.8593 36.8639 37.7143C36.7085 37.5693 36.6183 37.3702 36.613 37.1605V31.4325C36.6222 31.21 36.7193 30.9996 36.884 30.8454C37.0486 30.6911 37.2681 30.605 37.4964 30.605C37.7247 30.605 37.9442 30.6911 38.1088 30.8454C38.2735 30.9996 38.3706 31.21 38.3798 31.4325V36.3911H40.2188C40.3269 36.3847 40.4353 36.4 40.5373 36.436C40.6392 36.472 40.7325 36.5279 40.8114 36.6004C40.8903 36.6729 40.9532 36.7603 40.9962 36.8574C41.0391 36.9544 41.0613 37.059 41.0613 37.1647C41.0613 37.2705 41.0391 37.3751 40.9962 37.4721C40.9532 37.5692 40.8903 37.6566 40.8114 37.7291C40.7325 37.8015 40.6392 37.8575 40.5373 37.8935C40.4353 37.9295 40.3269 37.9448 40.2188 37.9384V37.9342ZM46.9976 37.2984C46.9751 37.4649 46.9022 37.621 46.7881 37.7469C46.6741 37.8727 46.5242 37.9625 46.3576 38.0048C46.1909 38.0471 46.0152 38.04 45.8527 37.9843C45.6903 37.9286 45.5485 37.8269 45.4457 37.6922L43.4163 35.0716L43.1163 35.3642V37.2055C43.1163 37.4294 43.0252 37.6441 42.8629 37.8023C42.7006 37.9606 42.4805 38.0495 42.251 38.0495C42.0214 38.0495 41.8013 37.9606 41.639 37.8023C41.4768 37.6441 41.3856 37.4294 41.3856 37.2055V31.4381C41.3856 31.2143 41.4768 30.9996 41.639 30.8413C41.8013 30.683 42.0214 30.5941 42.251 30.5941C42.4805 30.5941 42.7006 30.683 42.8629 30.8413C43.0252 30.9996 43.1163 31.2143 43.1163 31.4381V33.2471L45.5308 30.8923C45.594 30.8314 45.669 30.7833 45.7515 30.7509C45.8339 30.7186 45.9222 30.7025 46.0111 30.7038C46.2272 30.7093 46.4335 30.7925 46.5906 30.9374C46.7477 31.0823 46.8443 31.2786 46.862 31.4887C46.8698 31.5825 46.857 31.6768 46.8244 31.7654C46.7918 31.8539 46.7402 31.9346 46.6731 32.0022L44.6971 33.9251L46.8274 36.678C46.9653 36.8566 47.025 37.0812 46.9933 37.3026L46.9976 37.2984Z" fill="#331D1E"/>
</g>
<defs>
<clipPath id="clip0_1240_71040">
<rect width="30" height="27" fill="white" transform="translate(21 22.5)"/>
</clipPath>
</defs>
</svg>
